<mxfile host="Electron" modified="2024-08-05T07:41:05.420Z" agent="Mozilla/5.0 (Windows NT 10.0; Win64; x64) AppleWebKit/537.36 (KHTML, like Gecko) draw.io/21.2.1 Chrome/112.0.5615.87 Electron/24.1.2 Safari/537.36" etag="SzSoU0FsQTW3e1QJE-tv" version="21.2.1" type="device">
  <diagram id="C5RBs43oDa-KdzZeNtuy" name="Page-1">
    <mxGraphModel dx="1050" dy="669" grid="1" gridSize="10" guides="1" tooltips="1" connect="1" arrows="1" fold="1" page="1" pageScale="1" pageWidth="827" pageHeight="1169" math="0" shadow="0">
      <root>
        <mxCell id="WIyWlLk6GJQsqaUBKTNV-0" />
        <mxCell id="WIyWlLk6GJQsqaUBKTNV-1" parent="WIyWlLk6GJQsqaUBKTNV-0" />
        <mxCell id="DhGetXEvPE-CkkpdUZqT-3" value="Msg_StartGame" style="edgeStyle=orthogonalEdgeStyle;rounded=0;orthogonalLoop=1;jettySize=auto;html=1;entryX=0.5;entryY=0;entryDx=0;entryDy=0;" edge="1" parent="WIyWlLk6GJQsqaUBKTNV-1" source="WIyWlLk6GJQsqaUBKTNV-3" target="DhGetXEvPE-CkkpdUZqT-2">
          <mxGeometry relative="1" as="geometry" />
        </mxCell>
        <mxCell id="WIyWlLk6GJQsqaUBKTNV-3" value="服务端OnPlayerConnect，记录玩家数量，达到玩家数量后 创建Room OnStartGame" style="rounded=1;whiteSpace=wrap;html=1;fontSize=12;glass=0;strokeWidth=1;shadow=0;fillColor=#dae8fc;strokeColor=#6c8ebf;" parent="WIyWlLk6GJQsqaUBKTNV-1" vertex="1">
          <mxGeometry x="20" y="170" width="245" height="60" as="geometry" />
        </mxCell>
        <mxCell id="DhGetXEvPE-CkkpdUZqT-1" style="edgeStyle=orthogonalEdgeStyle;rounded=0;orthogonalLoop=1;jettySize=auto;html=1;entryX=0.5;entryY=0;entryDx=0;entryDy=0;" edge="1" parent="WIyWlLk6GJQsqaUBKTNV-1" source="DhGetXEvPE-CkkpdUZqT-0" target="WIyWlLk6GJQsqaUBKTNV-3">
          <mxGeometry relative="1" as="geometry" />
        </mxCell>
        <mxCell id="DhGetXEvPE-CkkpdUZqT-0" value="客户端Msg_JoinRoom加入房间" style="rounded=1;whiteSpace=wrap;html=1;fillColor=#fff2cc;strokeColor=#d6b656;" vertex="1" parent="WIyWlLk6GJQsqaUBKTNV-1">
          <mxGeometry x="77.5" y="20" width="130" height="40" as="geometry" />
        </mxCell>
        <mxCell id="DhGetXEvPE-CkkpdUZqT-5" style="edgeStyle=orthogonalEdgeStyle;rounded=0;orthogonalLoop=1;jettySize=auto;html=1;entryX=0.5;entryY=0;entryDx=0;entryDy=0;" edge="1" parent="WIyWlLk6GJQsqaUBKTNV-1" source="DhGetXEvPE-CkkpdUZqT-2" target="DhGetXEvPE-CkkpdUZqT-4">
          <mxGeometry relative="1" as="geometry" />
        </mxCell>
        <mxCell id="DhGetXEvPE-CkkpdUZqT-2" value="客户端OnStartGame" style="rounded=1;whiteSpace=wrap;html=1;" vertex="1" parent="WIyWlLk6GJQsqaUBKTNV-1">
          <mxGeometry x="83" y="330" width="120" height="60" as="geometry" />
        </mxCell>
        <mxCell id="DhGetXEvPE-CkkpdUZqT-7" style="edgeStyle=orthogonalEdgeStyle;rounded=0;orthogonalLoop=1;jettySize=auto;html=1;entryX=0;entryY=0.5;entryDx=0;entryDy=0;" edge="1" parent="WIyWlLk6GJQsqaUBKTNV-1" source="DhGetXEvPE-CkkpdUZqT-4" target="DhGetXEvPE-CkkpdUZqT-6">
          <mxGeometry relative="1" as="geometry" />
        </mxCell>
        <mxCell id="DhGetXEvPE-CkkpdUZqT-4" value="创建初始单位和设置一些状态" style="rounded=1;whiteSpace=wrap;html=1;" vertex="1" parent="WIyWlLk6GJQsqaUBKTNV-1">
          <mxGeometry x="87.5" y="500" width="120" height="60" as="geometry" />
        </mxCell>
        <mxCell id="DhGetXEvPE-CkkpdUZqT-9" style="edgeStyle=orthogonalEdgeStyle;rounded=0;orthogonalLoop=1;jettySize=auto;html=1;entryX=0.5;entryY=1;entryDx=0;entryDy=0;" edge="1" parent="WIyWlLk6GJQsqaUBKTNV-1" source="DhGetXEvPE-CkkpdUZqT-6" target="DhGetXEvPE-CkkpdUZqT-8">
          <mxGeometry relative="1" as="geometry" />
        </mxCell>
        <mxCell id="DhGetXEvPE-CkkpdUZqT-6" value="开始执行Update" style="rounded=1;whiteSpace=wrap;html=1;" vertex="1" parent="WIyWlLk6GJQsqaUBKTNV-1">
          <mxGeometry x="470" y="500" width="120" height="60" as="geometry" />
        </mxCell>
        <mxCell id="DhGetXEvPE-CkkpdUZqT-11" style="edgeStyle=orthogonalEdgeStyle;rounded=0;orthogonalLoop=1;jettySize=auto;html=1;exitX=0.25;exitY=0;exitDx=0;exitDy=0;" edge="1" parent="WIyWlLk6GJQsqaUBKTNV-1" source="DhGetXEvPE-CkkpdUZqT-8" target="DhGetXEvPE-CkkpdUZqT-10">
          <mxGeometry relative="1" as="geometry" />
        </mxCell>
        <mxCell id="DhGetXEvPE-CkkpdUZqT-14" style="edgeStyle=orthogonalEdgeStyle;rounded=0;orthogonalLoop=1;jettySize=auto;html=1;" edge="1" parent="WIyWlLk6GJQsqaUBKTNV-1" source="DhGetXEvPE-CkkpdUZqT-8" target="DhGetXEvPE-CkkpdUZqT-12">
          <mxGeometry relative="1" as="geometry" />
        </mxCell>
        <mxCell id="DhGetXEvPE-CkkpdUZqT-8" value="更新时间，每隔一个TimeStep执行一次逻辑" style="rounded=1;whiteSpace=wrap;html=1;fillColor=#e1d5e7;strokeColor=#9673a6;" vertex="1" parent="WIyWlLk6GJQsqaUBKTNV-1">
          <mxGeometry x="470" y="420" width="120" height="60" as="geometry" />
        </mxCell>
        <mxCell id="DhGetXEvPE-CkkpdUZqT-32" style="edgeStyle=orthogonalEdgeStyle;rounded=0;orthogonalLoop=1;jettySize=auto;html=1;entryX=0.5;entryY=1;entryDx=0;entryDy=0;" edge="1" parent="WIyWlLk6GJQsqaUBKTNV-1" source="DhGetXEvPE-CkkpdUZqT-10" target="DhGetXEvPE-CkkpdUZqT-30">
          <mxGeometry relative="1" as="geometry" />
        </mxCell>
        <mxCell id="DhGetXEvPE-CkkpdUZqT-10" value="SendInput" style="rounded=1;whiteSpace=wrap;html=1;fillColor=#d5e8d4;strokeColor=#82b366;" vertex="1" parent="WIyWlLk6GJQsqaUBKTNV-1">
          <mxGeometry x="380" y="300" width="120" height="60" as="geometry" />
        </mxCell>
        <mxCell id="DhGetXEvPE-CkkpdUZqT-20" style="edgeStyle=orthogonalEdgeStyle;rounded=0;orthogonalLoop=1;jettySize=auto;html=1;exitX=0.25;exitY=0;exitDx=0;exitDy=0;entryX=0.25;entryY=1;entryDx=0;entryDy=0;" edge="1" parent="WIyWlLk6GJQsqaUBKTNV-1" source="DhGetXEvPE-CkkpdUZqT-12" target="DhGetXEvPE-CkkpdUZqT-19">
          <mxGeometry relative="1" as="geometry" />
        </mxCell>
        <mxCell id="DhGetXEvPE-CkkpdUZqT-22" style="edgeStyle=orthogonalEdgeStyle;rounded=0;orthogonalLoop=1;jettySize=auto;html=1;exitX=0.75;exitY=0;exitDx=0;exitDy=0;entryX=0.5;entryY=1;entryDx=0;entryDy=0;" edge="1" parent="WIyWlLk6GJQsqaUBKTNV-1" source="DhGetXEvPE-CkkpdUZqT-12" target="DhGetXEvPE-CkkpdUZqT-21">
          <mxGeometry relative="1" as="geometry" />
        </mxCell>
        <mxCell id="DhGetXEvPE-CkkpdUZqT-12" value="Step" style="rounded=1;whiteSpace=wrap;html=1;fillColor=#d5e8d4;strokeColor=#82b366;" vertex="1" parent="WIyWlLk6GJQsqaUBKTNV-1">
          <mxGeometry x="745" y="300" width="120" height="60" as="geometry" />
        </mxCell>
        <mxCell id="DhGetXEvPE-CkkpdUZqT-16" style="edgeStyle=orthogonalEdgeStyle;rounded=0;orthogonalLoop=1;jettySize=auto;html=1;entryX=0.003;entryY=0.627;entryDx=0;entryDy=0;entryPerimeter=0;" edge="1" parent="WIyWlLk6GJQsqaUBKTNV-1" source="DhGetXEvPE-CkkpdUZqT-15" target="DhGetXEvPE-CkkpdUZqT-10">
          <mxGeometry relative="1" as="geometry" />
        </mxCell>
        <mxCell id="DhGetXEvPE-CkkpdUZqT-15" value="&lt;h1&gt;发输入状态&lt;/h1&gt;&lt;p&gt;这里如果会限制跟服务端的输入帧差距，如果超过2-3帧没回来，就不会做任何事情&lt;/p&gt;" style="text;html=1;strokeColor=none;fillColor=none;spacing=5;spacingTop=-20;whiteSpace=wrap;overflow=hidden;rounded=0;" vertex="1" parent="WIyWlLk6GJQsqaUBKTNV-1">
          <mxGeometry x="224" y="380" width="190" height="120" as="geometry" />
        </mxCell>
        <mxCell id="DhGetXEvPE-CkkpdUZqT-19" value="Record,执行Update所有的Mgr" style="rounded=1;whiteSpace=wrap;html=1;" vertex="1" parent="WIyWlLk6GJQsqaUBKTNV-1">
          <mxGeometry x="640" y="170" width="180" height="60" as="geometry" />
        </mxCell>
        <mxCell id="DhGetXEvPE-CkkpdUZqT-28" style="edgeStyle=orthogonalEdgeStyle;rounded=0;orthogonalLoop=1;jettySize=auto;html=1;entryX=0.5;entryY=1;entryDx=0;entryDy=0;" edge="1" parent="WIyWlLk6GJQsqaUBKTNV-1" source="DhGetXEvPE-CkkpdUZqT-21" target="DhGetXEvPE-CkkpdUZqT-25">
          <mxGeometry relative="1" as="geometry" />
        </mxCell>
        <mxCell id="DhGetXEvPE-CkkpdUZqT-21" value="发送Msg_HashCode" style="rounded=1;whiteSpace=wrap;html=1;" vertex="1" parent="WIyWlLk6GJQsqaUBKTNV-1">
          <mxGeometry x="877" y="170" width="120" height="60" as="geometry" />
        </mxCell>
        <mxCell id="DhGetXEvPE-CkkpdUZqT-24" style="edgeStyle=orthogonalEdgeStyle;rounded=0;orthogonalLoop=1;jettySize=auto;html=1;entryX=0;entryY=0.5;entryDx=0;entryDy=0;" edge="1" parent="WIyWlLk6GJQsqaUBKTNV-1" source="DhGetXEvPE-CkkpdUZqT-23" target="DhGetXEvPE-CkkpdUZqT-19">
          <mxGeometry relative="1" as="geometry">
            <mxPoint x="580" y="175" as="sourcePoint" />
          </mxGeometry>
        </mxCell>
        <mxCell id="DhGetXEvPE-CkkpdUZqT-23" value="&lt;h1&gt;BaseMgr&lt;/h1&gt;&lt;p&gt;是一些继承自Mono的高挂在GameManager身上的BaseManager&lt;/p&gt;" style="text;html=1;strokeColor=none;fillColor=none;spacing=5;spacingTop=-20;whiteSpace=wrap;overflow=hidden;rounded=0;" vertex="1" parent="WIyWlLk6GJQsqaUBKTNV-1">
          <mxGeometry x="560" y="285" width="145" height="90" as="geometry" />
        </mxCell>
        <mxCell id="DhGetXEvPE-CkkpdUZqT-25" value="服务端OnPlayerHashCode" style="rounded=1;whiteSpace=wrap;html=1;" vertex="1" parent="WIyWlLk6GJQsqaUBKTNV-1">
          <mxGeometry x="900" y="40" width="120" height="60" as="geometry" />
        </mxCell>
        <mxCell id="DhGetXEvPE-CkkpdUZqT-27" style="edgeStyle=orthogonalEdgeStyle;rounded=0;orthogonalLoop=1;jettySize=auto;html=1;" edge="1" parent="WIyWlLk6GJQsqaUBKTNV-1" source="DhGetXEvPE-CkkpdUZqT-26" target="DhGetXEvPE-CkkpdUZqT-25">
          <mxGeometry relative="1" as="geometry">
            <mxPoint x="740" y="90" as="sourcePoint" />
          </mxGeometry>
        </mxCell>
        <mxCell id="DhGetXEvPE-CkkpdUZqT-26" value="&lt;h1&gt;Hash检查&lt;/h1&gt;&lt;p&gt;这里只是用tick做key，让服务端跟其他对其他客户端发上来的进行对比，不一样的好像也就只是输出了一个log&lt;/p&gt;" style="text;html=1;strokeColor=none;fillColor=none;spacing=5;spacingTop=-20;whiteSpace=wrap;overflow=hidden;rounded=0;" vertex="1" parent="WIyWlLk6GJQsqaUBKTNV-1">
          <mxGeometry x="675" y="20" width="190" height="120" as="geometry" />
        </mxCell>
        <mxCell id="DhGetXEvPE-CkkpdUZqT-30" value="OnPlayerInput 当前tick全部输入都满了就广播" style="rounded=1;whiteSpace=wrap;html=1;" vertex="1" parent="WIyWlLk6GJQsqaUBKTNV-1">
          <mxGeometry x="381" y="180" width="120" height="60" as="geometry" />
        </mxCell>
        <mxCell id="DhGetXEvPE-CkkpdUZqT-34" style="edgeStyle=orthogonalEdgeStyle;rounded=0;orthogonalLoop=1;jettySize=auto;html=1;" edge="1" parent="WIyWlLk6GJQsqaUBKTNV-1" source="DhGetXEvPE-CkkpdUZqT-33">
          <mxGeometry relative="1" as="geometry">
            <mxPoint x="870" y="335" as="targetPoint" />
          </mxGeometry>
        </mxCell>
        <mxCell id="DhGetXEvPE-CkkpdUZqT-33" value="当前帧的输入没有回来的话不做Step" style="text;html=1;strokeColor=none;fillColor=none;align=center;verticalAlign=middle;whiteSpace=wrap;rounded=0;" vertex="1" parent="WIyWlLk6GJQsqaUBKTNV-1">
          <mxGeometry x="920" y="320" width="100" height="30" as="geometry" />
        </mxCell>
      </root>
    </mxGraphModel>
  </diagram>
</mxfile>
